<svg width="48" height="48" viewBox="0 0 48 48" fill="none" xmlns="http://www.w3.org/2000/svg">
<path fill-rule="evenodd" clip-rule="evenodd" d="M28.6166 8.55791C30.6818 6.4807 34.0301 6.4807 36.0952 8.55791L44.4511 16.9626C46.5163 19.0398 46.5163 22.4077 44.4511 24.4849L36.0952 32.8896L28.6166 25.3673L33.2332 20.7237L32.3559 19.8413L19.3834 32.8896C17.3182 34.9668 13.9699 34.9668 11.9048 32.8896L3.54887 24.4849C1.48371 22.4077 1.48371 19.0398 3.54887 16.9626L11.9048 8.55791L19.3834 16.0802L14.7668 20.7237L15.6441 21.6062L28.6166 8.55791Z" fill="#3987CE"/>
<path d="M28.739 30.2248H27.0698H25.4006V35.2015H22.4651L27.0698 41.8372L31.6744 35.2015H28.739V30.2248Z" fill="#3987CE" stroke="#3987CE"/>
</svg>
