<svg width="24" height="23" viewBox="0 0 24 23" fill="none" xmlns="http://www.w3.org/2000/svg">
<path d="M3.84299 9.73674L6.90614 6.72502C7.30487 6.33298 7.31811 5.69446 6.93597 5.28623C6.54047 4.86373 5.87466 4.84976 5.4618 5.25531L2.36639 8.29581C0.274609 10.3505 0.276295 13.7303 2.35493 15.7983C4.42999 17.8627 7.79794 17.8667 9.86278 15.7921L16.0963 9.52902C17.3656 8.25373 19.4271 8.24488 20.7073 9.50922C22.013 10.7987 22.0007 12.9104 20.6801 14.1845L17.5631 17.1918C17.1519 17.5886 17.1347 18.2418 17.5244 18.6597C17.9282 19.0927 18.6102 19.1051 19.0296 18.6872L22.1334 15.5939C24.2003 13.534 24.201 10.187 22.1349 8.12625C20.0693 6.06603 16.7234 6.07477 14.6686 8.14577L8.47426 14.389C7.18268 15.6908 5.07501 15.6819 3.79455 14.3691C2.53235 13.0751 2.554 11.0041 3.84299 9.73674Z" fill="black"/>
<path d="M8.19299 8.79658C8.70804 8.85414 9.14605 8.4242 9.09807 7.90817L8.75897 4.26061C8.71434 3.78062 8.33363 3.40078 7.85354 3.35726L4.09232 3.01631C3.56244 2.96828 3.12173 3.41829 3.18083 3.94706V3.94706C3.22615 4.35261 3.55614 4.66707 3.96341 4.6928L4.74611 4.74224C5.2033 4.77112 5.40674 5.33077 5.07482 5.6465V5.6465C4.85183 5.85861 4.85832 6.21617 5.08885 6.42007L5.83036 7.07589C6.04359 7.26449 6.36876 7.24685 6.56035 7.0363V7.0363C6.88053 6.68441 7.46605 6.91093 7.46605 7.38668L7.46605 8.0278C7.46605 8.41928 7.76027 8.74822 8.14933 8.7917L8.19299 8.79658Z" fill="black"/>
<path d="M16.6771 14.7491C16.1683 14.6507 15.6974 15.0444 15.7041 15.5626L15.7516 19.2256C15.7579 19.7076 16.1071 20.1166 16.5822 20.1982L20.3044 20.8376C20.8287 20.9277 21.3039 20.5142 21.2871 19.9824V19.9824C21.2742 19.5746 20.9703 19.2348 20.5664 19.1767L19.7901 19.0651C19.3367 18.9999 19.1785 18.4258 19.5345 18.1375V18.1375C19.7736 17.9439 19.7957 17.5869 19.5821 17.3653L18.8952 16.6525C18.6976 16.4475 18.3721 16.4392 18.1644 16.6338V16.6338C17.8172 16.9591 17.2515 16.6867 17.2894 16.2124L17.3405 15.5734C17.3717 15.1831 17.1046 14.8318 16.7202 14.7575L16.6771 14.7491Z" fill="black"/>
</svg>
